<svg width="570" height="112" viewBox="0 0 570 112" fill="none" xmlns="http://www.w3.org/2000/svg">
<path d="M56 14C33.6 14 14 32.0133 14 56C14 65.8933 17.4533 74.9933 23.1933 82.18L14 91.42L20.58 98L29.7733 88.8067C37.219 94.7585 46.4678 98.0005 56 98C66.7333 98 77.5133 93.8933 85.68 85.68C89.5916 81.7914 92.6942 77.1665 94.8087 72.0723C96.9233 66.9781 98.0079 61.5156 98 56V14H56ZM73.8733 57.2133L49.7933 78.82C49.0467 79.52 47.88 79.4733 47.18 78.7733C46.8638 78.458 46.671 78.0398 46.6368 77.5946C46.6026 77.1494 46.729 76.7066 46.9933 76.3467L58.38 60.8067L39.48 58.94C39.0182 58.8967 38.5789 58.7204 38.2153 58.4325C37.8517 58.1446 37.5793 57.7575 37.4311 57.318C37.283 56.8785 37.2654 56.4055 37.3806 55.9562C37.4958 55.507 37.7387 55.1007 38.08 54.7867L62.16 33.18C62.9067 32.48 64.0733 32.5267 64.7733 33.2267C65.4267 33.88 65.52 34.9067 64.96 35.6533L53.5733 51.1933L72.4733 53.06C74.5733 53.2467 75.4133 55.8133 73.8733 57.2133Z" fill="#F25000"/>
<path d="M126.244 55V20.0909H148.949V25.392H132.568V34.8693H147.772V40.1705H132.568V49.6989H149.085V55H126.244ZM155.4 55V20.0909H161.724V49.6989H177.099V55H155.4ZM182.588 55V20.0909H205.292V25.392H188.912V34.8693H204.116V40.1705H188.912V49.6989H205.429V55H182.588ZM241.625 31.8693H235.25C235.068 30.8239 234.733 29.8977 234.244 29.0909C233.755 28.2727 233.147 27.5795 232.42 27.0114C231.693 26.4432 230.863 26.017 229.931 25.733C229.011 25.4375 228.017 25.2898 226.949 25.2898C225.051 25.2898 223.369 25.767 221.903 26.7216C220.437 27.6648 219.289 29.0511 218.46 30.8807C217.63 32.6989 217.216 34.9205 217.216 37.5455C217.216 40.2159 217.63 42.4659 218.46 44.2955C219.301 46.1136 220.449 47.4886 221.903 48.4205C223.369 49.3409 225.045 49.8011 226.931 49.8011C227.977 49.8011 228.954 49.6648 229.863 49.392C230.784 49.108 231.608 48.6932 232.335 48.1477C233.074 47.6023 233.693 46.9318 234.193 46.1364C234.704 45.3409 235.056 44.4318 235.25 43.4091L241.625 43.4432C241.386 45.1023 240.869 46.6591 240.074 48.1136C239.289 49.5682 238.261 50.8523 236.988 51.9659C235.716 53.0682 234.227 53.9318 232.522 54.5568C230.818 55.1705 228.926 55.4773 226.846 55.4773C223.778 55.4773 221.039 54.767 218.63 53.3466C216.221 51.9261 214.324 49.875 212.937 47.1932C211.551 44.5114 210.858 41.2955 210.858 37.5455C210.858 33.7841 211.556 30.5682 212.954 27.8977C214.352 25.2159 216.255 23.1648 218.664 21.7443C221.074 20.3239 223.801 19.6136 226.846 19.6136C228.789 19.6136 230.596 19.8864 232.267 20.4318C233.937 20.9773 235.426 21.7784 236.733 22.8352C238.039 23.8807 239.113 25.1648 239.954 26.6875C240.806 28.1989 241.363 29.9261 241.625 31.8693ZM245.882 25.392V20.0909H273.734V25.392H262.944V55H256.672V25.392H245.882ZM279.103 55V20.0909H292.194C294.876 20.0909 297.126 20.5568 298.944 21.4886C300.774 22.4205 302.154 23.7273 303.086 25.4091C304.029 27.0795 304.501 29.0284 304.501 31.2557C304.501 33.4943 304.024 35.4375 303.069 37.0852C302.126 38.7216 300.734 39.9886 298.893 40.8864C297.052 41.7727 294.791 42.2159 292.109 42.2159H282.785V36.9659H291.257C292.825 36.9659 294.109 36.75 295.109 36.3182C296.109 35.875 296.848 35.233 297.325 34.392C297.814 33.5398 298.058 32.4943 298.058 31.2557C298.058 30.017 297.814 28.9602 297.325 28.0852C296.836 27.1989 296.092 26.5284 295.092 26.0739C294.092 25.608 292.802 25.375 291.223 25.375H285.427V55H279.103ZM297.137 39.1818L305.779 55H298.723L290.234 39.1818H297.137ZM316.646 20.0909V55H310.322V20.0909H316.646ZM353.375 31.8693H347C346.818 30.8239 346.483 29.8977 345.994 29.0909C345.505 28.2727 344.897 27.5795 344.17 27.0114C343.443 26.4432 342.613 26.017 341.681 25.733C340.761 25.4375 339.767 25.2898 338.699 25.2898C336.801 25.2898 335.119 25.767 333.653 26.7216C332.187 27.6648 331.039 29.0511 330.21 30.8807C329.38 32.6989 328.966 34.9205 328.966 37.5455C328.966 40.2159 329.38 42.4659 330.21 44.2955C331.051 46.1136 332.199 47.4886 333.653 48.4205C335.119 49.3409 336.795 49.8011 338.681 49.8011C339.727 49.8011 340.704 49.6648 341.613 49.392C342.534 49.108 343.358 48.6932 344.085 48.1477C344.824 47.6023 345.443 46.9318 345.943 46.1364C346.454 45.3409 346.806 44.4318 347 43.4091L353.375 43.4432C353.136 45.1023 352.619 46.6591 351.824 48.1136C351.039 49.5682 350.011 50.8523 348.738 51.9659C347.466 53.0682 345.977 53.9318 344.272 54.5568C342.568 55.1705 340.676 55.4773 338.596 55.4773C335.528 55.4773 332.789 54.767 330.38 53.3466C327.971 51.9261 326.074 49.875 324.687 47.1932C323.301 44.5114 322.608 41.2955 322.608 37.5455C322.608 33.7841 323.306 30.5682 324.704 27.8977C326.102 25.2159 328.005 23.1648 330.414 21.7443C332.824 20.3239 335.551 19.6136 338.596 19.6136C340.539 19.6136 342.346 19.8864 344.017 20.4318C345.687 20.9773 347.176 21.7784 348.483 22.8352C349.789 23.8807 350.863 25.1648 351.704 26.6875C352.556 28.1989 353.113 29.9261 353.375 31.8693ZM365.49 20.0909V55H359.166V20.0909H365.49ZM372.338 55V20.0909H395.042V25.392H378.662V34.8693H393.866V40.1705H378.662V49.6989H395.179V55H372.338ZM430.181 20.0909V55H424.556L408.108 31.2216H407.818V55H401.494V20.0909H407.153L423.585 43.8864H423.892V20.0909H430.181ZM477.666 20.0909V55H472.041L455.592 31.2216H455.302V55H448.978V20.0909H454.637L471.069 43.8864H471.376V20.0909H477.666ZM490.88 20.0909V55H484.556V20.0909H490.88ZM527.609 31.8693H521.234C521.052 30.8239 520.717 29.8977 520.228 29.0909C519.74 28.2727 519.132 27.5795 518.404 27.0114C517.677 26.4432 516.848 26.017 515.916 25.733C514.995 25.4375 514.001 25.2898 512.933 25.2898C511.035 25.2898 509.353 25.767 507.887 26.7216C506.422 27.6648 505.274 29.0511 504.444 30.8807C503.615 32.6989 503.2 34.9205 503.2 37.5455C503.2 40.2159 503.615 42.4659 504.444 44.2955C505.285 46.1136 506.433 47.4886 507.887 48.4205C509.353 49.3409 511.029 49.8011 512.916 49.8011C513.961 49.8011 514.939 49.6648 515.848 49.392C516.768 49.108 517.592 48.6932 518.319 48.1477C519.058 47.6023 519.677 46.9318 520.177 46.1364C520.689 45.3409 521.041 44.4318 521.234 43.4091L527.609 43.4432C527.37 45.1023 526.853 46.6591 526.058 48.1136C525.274 49.5682 524.245 50.8523 522.973 51.9659C521.7 53.0682 520.211 53.9318 518.507 54.5568C516.802 55.1705 514.91 55.4773 512.831 55.4773C509.762 55.4773 507.024 54.767 504.615 53.3466C502.206 51.9261 500.308 49.875 498.922 47.1932C497.535 44.5114 496.842 41.2955 496.842 37.5455C496.842 33.7841 497.541 30.5682 498.939 27.8977C500.336 25.2159 502.24 23.1648 504.649 21.7443C507.058 20.3239 509.785 19.6136 512.831 19.6136C514.774 19.6136 516.581 19.8864 518.251 20.4318C519.922 20.9773 521.41 21.7784 522.717 22.8352C524.024 23.8807 525.098 25.1648 525.939 26.6875C526.791 28.1989 527.348 29.9261 527.609 31.8693ZM533.4 55V20.0909H556.105V25.392H539.724V34.8693H554.929V40.1705H539.724V49.6989H556.241V55H533.4Z" fill="#EDEEF0"/>
<path d="M287.539 97V73.7273H302.13V76.75H291.05V83.8409H301.369V86.8523H291.05V93.9773H302.266V97H287.539ZM309.264 73.7273L314.832 82.8295H315.014L320.582 73.7273H324.65L317.4 85.3636L324.695 97H320.604L315.014 88.0227H314.832L309.241 97H305.15L312.57 85.3636L305.195 73.7273H309.264ZM328.133 97V73.7273H336.428C338.239 73.7273 339.739 74.0568 340.928 74.7159C342.118 75.375 343.008 76.2765 343.599 77.4205C344.19 78.5568 344.485 79.8371 344.485 81.2614C344.485 82.6932 344.186 83.9811 343.587 85.125C342.996 86.2614 342.103 87.1629 340.906 87.8295C339.716 88.4886 338.22 88.8182 336.417 88.8182H330.712V85.8409H336.099C337.243 85.8409 338.171 85.6439 338.883 85.25C339.595 84.8485 340.118 84.303 340.451 83.6136C340.784 82.9242 340.951 82.1402 340.951 81.2614C340.951 80.3826 340.784 79.6023 340.451 78.9205C340.118 78.2386 339.591 77.7045 338.871 77.3182C338.159 76.9318 337.22 76.7386 336.053 76.7386H331.644V97H328.133ZM348.602 97V73.7273H363.193V76.75H352.113V83.8409H362.431V86.8523H352.113V93.9773H363.329V97H348.602ZM367.883 97V73.7273H376.178C377.981 73.7273 379.478 74.0379 380.667 74.6591C381.864 75.2803 382.758 76.1402 383.349 77.2386C383.94 78.3295 384.235 79.5909 384.235 81.0227C384.235 82.447 383.936 83.7008 383.337 84.7841C382.746 85.8598 381.853 86.697 380.656 87.2955C379.466 87.8939 377.97 88.1932 376.167 88.1932H369.883V85.1705H375.849C376.985 85.1705 377.909 85.0076 378.621 84.6818C379.341 84.3561 379.868 83.8826 380.201 83.2614C380.534 82.6402 380.701 81.8939 380.701 81.0227C380.701 80.1439 380.531 79.3826 380.19 78.7386C379.856 78.0947 379.33 77.6023 378.61 77.2614C377.898 76.9129 376.962 76.7386 375.803 76.7386H371.394V97H367.883ZM379.371 86.5L385.121 97H381.121L375.485 86.5H379.371ZM387.36 76.75V73.7273H405.371V76.75H398.11V97H394.61V76.75H387.36Z" fill="#F25000"/>
</svg>
