<svg xmlns="http://www.w3.org/2000/svg" xml:space="preserve" width="800" height="800" fill="#f25000" stroke="#f25000" viewBox="0 0 490.667 490.667"><path d="M320 341.333h-18.987l29.44-147.243a10.66 10.66 0 0 0-2.603-9.301 10.76 10.76 0 0 0-9.045-3.392l-79.424 8.832 37.376-112.192a10.57 10.57 0 0 0-1.451-9.6A10.65 10.65 0 0 0 266.645 64h-85.333a10.655 10.655 0 0 0-10.304 7.957l-53.333 202.667c-.917 3.499 0 7.232 2.432 9.899 2.453 2.667 6.101 3.968 9.643 3.328l112.405-18.731-16.043 72.213h-23.445c-3.691 0-7.125 1.941-9.067 5.077a10.63 10.63 0 0 0-.469 10.368l42.667 85.333a10.66 10.66 0 0 0 8.192 5.803 10.663 10.663 0 0 0 9.365-3.563l74.667-85.333a10.63 10.63 0 0 0 1.685-11.435 10.64 10.64 0 0 0-9.707-6.25zm-72.235 77.014-27.84-55.68h14.741c4.992 0 9.323-3.477 10.411-8.384l21.333-96a10.66 10.66 0 0 0-2.667-9.643c-2.432-2.581-5.952-3.755-9.493-3.179l-111.744 18.624 47.04-178.773h62.315l-37.973 113.963c-1.173 3.456-.469 7.253 1.813 10.091s5.76 4.245 9.472 3.904l81.493-9.067-29.141 145.707a10.71 10.71 0 0 0 2.219 8.853 10.66 10.66 0 0 0 8.256 3.904h8.491z"/><path d="M245.333 0C110.059 0 0 110.059 0 245.333s110.059 245.333 245.333 245.333 245.333-110.059 245.333-245.333S380.608 0 245.333 0zm0 469.333c-123.52 0-224-100.48-224-224s100.48-224 224-224 224 100.48 224 224-100.48 224-224 224z"/></svg>