<svg width="651" height="112" viewBox="0 0 651 112" fill="none" xmlns="http://www.w3.org/2000/svg">
<path d="M56 14C33.6 14 14 32.0133 14 56C14 65.8933 17.4533 74.9933 23.1933 82.18L14 91.42L20.58 98L29.7733 88.8067C37.219 94.7585 46.4678 98.0005 56 98C66.7333 98 77.5133 93.8933 85.68 85.68C89.5916 81.7914 92.6942 77.1665 94.8087 72.0723C96.9233 66.9781 98.0079 61.5156 98 56V14H56ZM73.8733 57.2133L49.7933 78.82C49.0467 79.52 47.88 79.4733 47.18 78.7733C46.8638 78.458 46.671 78.0398 46.6368 77.5946C46.6026 77.1494 46.729 76.7066 46.9933 76.3467L58.38 60.8067L39.48 58.94C39.0182 58.8967 38.5789 58.7204 38.2153 58.4325C37.8517 58.1446 37.5793 57.7575 37.4311 57.318C37.283 56.8785 37.2654 56.4055 37.3806 55.9562C37.4958 55.507 37.7387 55.1007 38.08 54.7867L62.16 33.18C62.9067 32.48 64.0733 32.5267 64.7733 33.2267C65.4267 33.88 65.52 34.9067 64.96 35.6533L53.5733 51.1933L72.4733 53.06C74.5733 53.2467 75.4133 55.8133 73.8733 57.2133Z" fill="#C1121F"/>
<path d="M126.228 52V19.2727H147.513V24.2425H132.157V33.1275H146.411V38.0973H132.157V47.0302H147.641V52H126.228ZM153.562 52V19.2727H159.491V47.0302H173.905V52H153.562ZM179.05 52V19.2727H200.336V24.2425H184.979V33.1275H199.233V38.0973H184.979V47.0302H200.464V52H179.05ZM234.397 30.315H228.421C228.25 29.3349 227.936 28.4666 227.478 27.7102C227.02 26.9432 226.45 26.2933 225.768 25.7607C225.086 25.228 224.309 24.8285 223.435 24.5621C222.572 24.2852 221.64 24.1467 220.638 24.1467C218.859 24.1467 217.283 24.5941 215.908 25.489C214.534 26.3732 213.458 27.6729 212.68 29.3881C211.903 31.0927 211.514 33.1754 211.514 35.6364C211.514 38.1399 211.903 40.2493 212.68 41.9645C213.469 43.669 214.545 44.9581 215.908 45.8317C217.283 46.6946 218.854 47.1261 220.623 47.1261C221.603 47.1261 222.519 46.9982 223.371 46.7425C224.234 46.4762 225.006 46.0874 225.688 45.576C226.381 45.0646 226.961 44.4361 227.43 43.6903C227.909 42.9446 228.24 42.0923 228.421 41.1335L234.397 41.1655C234.174 42.7209 233.689 44.1804 232.943 45.544C232.208 46.9077 231.244 48.1115 230.051 49.1555C228.858 50.1889 227.462 50.9986 225.864 51.5845C224.266 52.1598 222.492 52.4474 220.543 52.4474C217.666 52.4474 215.099 51.7816 212.84 50.4499C210.582 49.1183 208.803 47.1953 207.503 44.6811C206.203 42.1669 205.553 39.152 205.553 35.6364C205.553 32.1101 206.208 29.0952 207.519 26.5916C208.829 24.0774 210.614 22.1545 212.872 20.8228C215.131 19.4911 217.688 18.8253 220.543 18.8253C222.364 18.8253 224.058 19.081 225.624 19.5923C227.19 20.1037 228.586 20.8548 229.811 21.8455C231.036 22.8256 232.043 24.0295 232.831 25.457C233.63 26.8739 234.152 28.4933 234.397 30.315ZM238.388 24.2425V19.2727H264.5V24.2425H254.385V52H248.504V24.2425H238.388ZM269.534 52V19.2727H281.806C284.321 19.2727 286.43 19.7095 288.135 20.5831C289.85 21.4567 291.144 22.6818 292.018 24.2585C292.902 25.8246 293.344 27.6516 293.344 29.7397C293.344 31.8384 292.897 33.6602 292.002 35.2049C291.117 36.739 289.812 37.9268 288.087 38.7685C286.361 39.5994 284.241 40.0149 281.726 40.0149H272.985V35.093H280.927C282.398 35.093 283.601 34.8906 284.539 34.4858C285.476 34.0703 286.169 33.4684 286.616 32.68C287.074 31.881 287.304 30.9009 287.304 29.7397C287.304 28.5785 287.074 27.5877 286.616 26.7674C286.158 25.9364 285.46 25.3079 284.523 24.8817C283.585 24.445 282.376 24.2266 280.896 24.2266H275.462V52H269.534ZM286.441 37.1705L294.543 52H287.927L279.969 37.1705H286.441ZM304.73 19.2727V52H298.801V19.2727H304.73ZM339.163 30.315H333.186C333.016 29.3349 332.702 28.4666 332.244 27.7102C331.786 26.9432 331.216 26.2933 330.534 25.7607C329.852 25.228 329.074 24.8285 328.201 24.5621C327.338 24.2852 326.406 24.1467 325.404 24.1467C323.625 24.1467 322.048 24.5941 320.674 25.489C319.3 26.3732 318.224 27.6729 317.446 29.3881C316.668 31.0927 316.279 33.1754 316.279 35.6364C316.279 38.1399 316.668 40.2493 317.446 41.9645C318.234 43.669 319.31 44.9581 320.674 45.8317C322.048 46.6946 323.62 47.1261 325.388 47.1261C326.368 47.1261 327.284 46.9982 328.137 46.7425C329 46.4762 329.772 46.0874 330.454 45.576C331.146 45.0646 331.727 44.4361 332.196 43.6903C332.675 42.9446 333.005 42.0923 333.186 41.1335L339.163 41.1655C338.939 42.7209 338.455 44.1804 337.709 45.544C336.974 46.9077 336.01 48.1115 334.816 49.1555C333.623 50.1889 332.228 50.9986 330.63 51.5845C329.032 52.1598 327.258 52.4474 325.308 52.4474C322.432 52.4474 319.864 51.7816 317.606 50.4499C315.347 49.1183 313.568 47.1953 312.268 44.6811C310.969 42.1669 310.319 39.152 310.319 35.6364C310.319 32.1101 310.974 29.0952 312.284 26.5916C313.595 24.0774 315.379 22.1545 317.638 20.8228C319.896 19.4911 322.453 18.8253 325.308 18.8253C327.13 18.8253 328.824 19.081 330.39 19.5923C331.956 20.1037 333.352 20.8548 334.577 21.8455C335.802 22.8256 336.809 24.0295 337.597 25.457C338.396 26.8739 338.918 28.4933 339.163 30.315ZM350.521 19.2727V52H344.592V19.2727H350.521ZM356.941 52V19.2727H378.226V24.2425H362.869V33.1275H377.124V38.0973H362.869V47.0302H378.354V52H356.941ZM411.169 19.2727V52H405.896L390.475 29.7077H390.203V52H384.275V19.2727H389.58L404.985 41.581H405.273V19.2727H411.169ZM427.353 24.2425V19.2727H453.465V24.2425H443.349V52H437.469V24.2425H427.353ZM486.292 35.6364C486.292 39.1626 485.631 42.1829 484.31 44.6971C483 47.2006 481.21 49.1183 478.941 50.4499C476.683 51.7816 474.12 52.4474 471.255 52.4474C468.389 52.4474 465.821 51.7816 463.552 50.4499C461.294 49.1076 459.504 47.1847 458.183 44.6811C456.873 42.1669 456.217 39.152 456.217 35.6364C456.217 32.1101 456.873 29.0952 458.183 26.5916C459.504 24.0774 461.294 22.1545 463.552 20.8228C465.821 19.4911 468.389 18.8253 471.255 18.8253C474.12 18.8253 476.683 19.4911 478.941 20.8228C481.21 22.1545 483 24.0774 484.31 26.5916C485.631 29.0952 486.292 32.1101 486.292 35.6364ZM480.331 35.6364C480.331 33.1541 479.942 31.0607 479.165 29.3562C478.398 27.641 477.332 26.3466 475.969 25.473C474.605 24.5888 473.034 24.1467 471.255 24.1467C469.475 24.1467 467.904 24.5888 466.54 25.473C465.177 26.3466 464.106 27.641 463.328 29.3562C462.561 31.0607 462.178 33.1541 462.178 35.6364C462.178 38.1186 462.561 40.2173 463.328 41.9325C464.106 43.6371 465.177 44.9315 466.54 45.8157C467.904 46.6893 469.475 47.1261 471.255 47.1261C473.034 47.1261 474.605 46.6893 475.969 45.8157C477.332 44.9315 478.398 43.6371 479.165 41.9325C479.942 40.2173 480.331 38.1186 480.331 35.6364ZM512.527 19.2727H518.456V40.6541C518.456 42.9979 517.902 45.0593 516.794 46.8384C515.697 48.6175 514.152 50.0078 512.16 51.0092C510.168 52 507.84 52.4954 505.176 52.4954C502.502 52.4954 500.169 52 498.177 51.0092C496.185 50.0078 494.64 48.6175 493.543 46.8384C492.446 45.0593 491.897 42.9979 491.897 40.6541V19.2727H497.826V40.1587C497.826 41.5224 498.124 42.7369 498.72 43.8022C499.328 44.8675 500.18 45.7038 501.277 46.3111C502.375 46.9077 503.674 47.206 505.176 47.206C506.679 47.206 507.978 46.9077 509.076 46.3111C510.184 45.7038 511.036 44.8675 511.632 43.8022C512.229 42.7369 512.527 41.5224 512.527 40.1587V19.2727ZM524.9 52V19.2727H530.828V47.0302H545.243V52H524.9ZM578.357 35.6364C578.357 39.1626 577.697 42.1829 576.376 44.6971C575.065 47.2006 573.276 49.1183 571.006 50.4499C568.748 51.7816 566.186 52.4474 563.32 52.4474C560.454 52.4474 557.887 51.7816 555.618 50.4499C553.359 49.1076 551.569 47.1847 550.248 44.6811C548.938 42.1669 548.283 39.152 548.283 35.6364C548.283 32.1101 548.938 29.0952 550.248 26.5916C551.569 24.0774 553.359 22.1545 555.618 20.8228C557.887 19.4911 560.454 18.8253 563.32 18.8253C566.186 18.8253 568.748 19.4911 571.006 20.8228C573.276 22.1545 575.065 24.0774 576.376 26.5916C577.697 29.0952 578.357 32.1101 578.357 35.6364ZM572.397 35.6364C572.397 33.1541 572.008 31.0607 571.23 29.3562C570.463 27.641 569.398 26.3466 568.034 25.473C566.671 24.5888 565.099 24.1467 563.32 24.1467C561.541 24.1467 559.97 24.5888 558.606 25.473C557.242 26.3466 556.172 27.641 555.394 29.3562C554.627 31.0607 554.243 33.1541 554.243 35.6364C554.243 38.1186 554.627 40.2173 555.394 41.9325C556.172 43.6371 557.242 44.9315 558.606 45.8157C559.97 46.6893 561.541 47.1261 563.32 47.1261C565.099 47.1261 566.671 46.6893 568.034 45.8157C569.398 44.9315 570.463 43.6371 571.23 41.9325C572.008 40.2173 572.397 38.1186 572.397 35.6364ZM610.857 19.2727V52H605.583L590.163 29.7077H589.891V52H583.962V19.2727H589.268L604.673 41.581H604.96V19.2727H610.857Z" fill="#2B3962"/>
<path d="M287.539 97V73.7273H302.13V76.75H291.05V83.8409H301.369V86.8523H291.05V93.9773H302.266V97H287.539ZM309.264 73.7273L314.832 82.8295H315.014L320.582 73.7273H324.65L317.4 85.3636L324.695 97H320.604L315.014 88.0227H314.832L309.241 97H305.15L312.57 85.3636L305.195 73.7273H309.264ZM328.133 97V73.7273H336.428C338.239 73.7273 339.739 74.0568 340.928 74.7159C342.118 75.375 343.008 76.2765 343.599 77.4205C344.19 78.5568 344.485 79.8371 344.485 81.2614C344.485 82.6932 344.186 83.9811 343.587 85.125C342.996 86.2614 342.103 87.1629 340.906 87.8295C339.716 88.4886 338.22 88.8182 336.417 88.8182H330.712V85.8409H336.099C337.243 85.8409 338.171 85.6439 338.883 85.25C339.595 84.8485 340.118 84.303 340.451 83.6136C340.784 82.9242 340.951 82.1402 340.951 81.2614C340.951 80.3826 340.784 79.6023 340.451 78.9205C340.118 78.2386 339.591 77.7045 338.871 77.3182C338.159 76.9318 337.22 76.7386 336.053 76.7386H331.644V97H328.133ZM348.602 97V73.7273H363.193V76.75H352.113V83.8409H362.431V86.8523H352.113V93.9773H363.329V97H348.602ZM367.883 97V73.7273H376.178C377.981 73.7273 379.478 74.0379 380.667 74.6591C381.864 75.2803 382.758 76.1402 383.349 77.2386C383.94 78.3295 384.235 79.5909 384.235 81.0227C384.235 82.447 383.936 83.7008 383.337 84.7841C382.746 85.8598 381.853 86.697 380.656 87.2955C379.466 87.8939 377.97 88.1932 376.167 88.1932H369.883V85.1705H375.849C376.985 85.1705 377.909 85.0076 378.621 84.6818C379.341 84.3561 379.868 83.8826 380.201 83.2614C380.534 82.6402 380.701 81.8939 380.701 81.0227C380.701 80.1439 380.531 79.3826 380.19 78.7386C379.856 78.0947 379.33 77.6023 378.61 77.2614C377.898 76.9129 376.962 76.7386 375.803 76.7386H371.394V97H367.883ZM379.371 86.5L385.121 97H381.121L375.485 86.5H379.371ZM387.36 76.75V73.7273H405.371V76.75H398.11V97H394.61V76.75H387.36Z" fill="#C1121F"/>
</svg>
